<svg preserveAspectRatio="xMidYMid meet" data-bbox="0 0 308.07 125.71" viewBox="0 0 308.07 125.71" xmlns="http://www.w3.org/2000/svg" data-type="ugc" role="presentation" aria-hidden="true">
    <g>
        <g>
            <path fill="#000" d="M60.86 115.35c-.11-.66-2.62-16.06-1.53-18.73l.06-.15c.93-2.3 1.74-4.29 6.44-7.6 1.49-1.06 7.53-2.76 8.17-2.87a28.36 28.36 0 0 0 6-3.63c.61-.74 2.31-2.44 2.91-3a5.43 5.43 0 0 1 3.32-1.71 3.55 3.55 0 0 1 3 1.41c.43.64.48 1.13-.33 2.47a22.31 22.31 0 0 1-1.72 2.27 20.33 20.33 0 0 0-1.71 2.3 15.13 15.13 0 0 1-4 4.19 10.16 10.16 0 0 0-1.51 1.33 32.61 32.61 0 0 1-3 3l-.28-.32a30.76 30.76 0 0 0 3-2.93 10.61 10.61 0 0 1 1.58-1.4 14.82 14.82 0 0 0 3.93-4.06 19.49 19.49 0 0 1 1.75-2.36 22 22 0 0 0 1.56-2.26c.81-1.34.63-1.61.35-2a3.15 3.15 0 0 0-2.61-1.22 5 5 0 0 0-3 1.6c-.58.52-2.28 2.23-2.87 2.93a28.92 28.92 0 0 1-6.23 3.78c-1 .26-6.69 1.9-8 2.85-4.6 3.24-5.39 5.18-6.3 7.42l-.06.15c-.3.73-.47 3.09.39 10.19.51 4.27 1.16 8.27 1.17 8.31z"/>
            <path fill="#000" d="M74.86 115.42c-.25-.44-6.1-10.75-2.9-13.83a102 102 0 0 1 8.66-6.77A64.13 64.13 0 0 0 86 90.69a29.88 29.88 0 0 0 2.33-3.31c.67-1.15 1.48-2.38 2.17-3.22s1.3-3.23 1.64-4.62c.12-.46.21-.83.28-1.05a21.3 21.3 0 0 1 1.13-2.69c.31-.65.67-1.39 1.08-2.38 0-.22.34-2 .53-2.9.26-1.19 0-1.43-.49-1.67a2.05 2.05 0 0 0-1.64 0 3.12 3.12 0 0 0-1.65 1.7 23 23 0 0 1-1.08 2.25 30.64 30.64 0 0 0-1.48 3.2c-.85 2.43-1.07 2.36-1.25 2.3s-.42-.14.37-2.57a10.5 10.5 0 0 0 .28-1.06c.08-.3.15-.62.26-1v-.17a11.64 11.64 0 0 0 .6-2.5 4.91 4.91 0 0 1 .21-1.16 5.86 5.86 0 0 0 .19-.94c.17-1.32 0-1.64-.58-1.82a2.38 2.38 0 0 0-1.92.13 2.33 2.33 0 0 0-1.16 1.44 8.77 8.77 0 0 0-.21 1.07 9.88 9.88 0 0 1-.7 2.52 17.55 17.55 0 0 0-1.54 4.73 16.16 16.16 0 0 1-.47 2.5c0 .19-.09.38-.09.42a.21.21 0 0 0-.17-.2l-.08.4-.14-.09c0-.09 0-.1.08-.63a17.29 17.29 0 0 0 .5-2.48A17.64 17.64 0 0 1 84.52 72a8.7 8.7 0 0 0 .67-2.42 10.15 10.15 0 0 1 .23-1.12 2.75 2.75 0 0 1 1.37-1.7 2.82 2.82 0 0 1 2.21-.13c.93.33 1 1.08.86 2.28a6.2 6.2 0 0 1-.2 1A4 4 0 0 0 89.5 71a12.14 12.14 0 0 1-.57 2.63l-.05.17c-.11.36-.18.67-.25 1s-.16.69-.29 1.09-.27.87-.36 1.18c.13-.3.27-.68.45-1.18a27.94 27.94 0 0 1 1.5-3.24c.43-.83.84-1.62 1.06-2.2a3.51 3.51 0 0 1 1.88-1.94 2.41 2.41 0 0 1 2 0c.81.36 1 .9.73 2.13-.2 1-.53 2.9-.53 2.92-.42 1-.78 1.76-1.09 2.42a19.33 19.33 0 0 0-1.11 2.64c-.07.2-.16.57-.27 1-.38 1.52-1 3.81-1.72 4.78s-1.45 2-2.19 3.19A31.34 31.34 0 0 1 86.27 91a61.28 61.28 0 0 1-5.41 4.19 105 105 0 0 0-8.62 6.73c-3 2.86 2.92 13.22 3 13.32z"/>
            <path fill="#000" d="m72.64 86.7-.37-.19s1.79-3.33 2.42-4.58a31.81 31.81 0 0 0 1.89-4.63c.36-1.31 1.33-3.54 2.23-4.15a2 2 0 0 1 2-.08l-.19.36a1.6 1.6 0 0 0-1.54.07c-.78.52-1.72 2.64-2.07 3.92a32.79 32.79 0 0 1-1.92 4.7c-.66 1.26-2.44 4.55-2.45 4.58z"/>
            <path fill="#000" d="m77.62 84.34-.4-.11s.59-2.14 1.23-3.76a19.19 19.19 0 0 0 1.2-4 34.33 34.33 0 0 1 1.72-5.38 3.81 3.81 0 0 1 2.72-2.4c1.35-.09 1.52.74 1.53.78l-.41.08s-.13-.51-1.09-.44-2 1.32-2.36 2.14a30.16 30.16 0 0 0-1.7 5.25 19.31 19.31 0 0 1-1.22 4.07c-.63 1.65-1.21 3.75-1.22 3.77z"/>
            <path fill="#000" d="M86.47 83.38c-.67 0-1.38-.82-1.88-1.57A1.27 1.27 0 0 1 85 80.1a5.8 5.8 0 0 1 1.78-1.31 3.09 3.09 0 0 1 2.28.94c.52.94-.37 2-.4 2.1a7.83 7.83 0 0 1-1.87 1.5.82.82 0 0 1-.32.05zm.42-4.19a5.32 5.32 0 0 0-1.62 1.21.89.89 0 0 0-.29 1.18c.65 1 1.28 1.5 1.65 1.36a7.19 7.19 0 0 0 1.7-1.38c0-.08.72-1 .36-1.63-.27-.42-1.47-.74-1.8-.74z"/>
            <path fill="#000" d="m57.53 115.35-.42-.07s.66-4 1.18-8.31c.85-7.1.68-9.46.38-10.19l-.06-.15c-.91-2.24-1.69-4.18-6.3-7.42-1.34-.95-7-2.59-8-2.85a29.41 29.41 0 0 1-6.23-3.78c-.58-.7-2.29-2.41-2.87-2.93a5 5 0 0 0-3-1.6 3.12 3.12 0 0 0-2.6 1.22c-.27.4-.47.69.34 2a23.63 23.63 0 0 0 1.68 2.22 18.48 18.48 0 0 1 1.75 2.36 14.82 14.82 0 0 0 3.93 4.06 10.61 10.61 0 0 1 1.58 1.4 30.76 30.76 0 0 0 3 2.93l-.27.32a30.23 30.23 0 0 1-3-3A10.34 10.34 0 0 0 37 90.27a15.13 15.13 0 0 1-4-4.19 20.33 20.33 0 0 0-1.71-2.3 22.31 22.31 0 0 1-1.72-2.27c-.81-1.34-.76-1.83-.33-2.47a3.56 3.56 0 0 1 2.95-1.41 5.4 5.4 0 0 1 3.32 1.71c.6.54 2.3 2.24 2.91 3a28.43 28.43 0 0 0 6 3.63c.63.16 6.67 1.86 8.16 2.92 4.71 3.31 5.51 5.3 6.45 7.6l.06.15c1.05 2.65-1.46 18.05-1.56 18.71z"/>
            <path fill="#000" d="m43.52 115.42-.36-.21c.06-.1 6-10.46 3-13.32a101.61 101.61 0 0 0-8.62-6.73A60.61 60.61 0 0 1 32.12 91a29.86 29.86 0 0 1-2.38-3.36c-.74-1.15-1.51-2.33-2.19-3.19s-1.34-3.26-1.71-4.78c-.12-.45-.21-.82-.27-1A22.21 22.21 0 0 0 24.46 76c-.32-.66-.68-1.41-1.1-2.42s-.33-2-.54-2.92c-.26-1.23-.08-1.77.73-2.13a2.44 2.44 0 0 1 2 0 3.49 3.49 0 0 1 1.87 1.94c.22.58.63 1.37 1.06 2.2A29.86 29.86 0 0 1 30 75.85c.17.5.32.88.44 1.18-.08-.31-.2-.71-.35-1.18a10.14 10.14 0 0 1-.3-1.09c-.07-.3-.14-.61-.25-1l-.05-.17a12.22 12.22 0 0 1-.6-2.59 7.44 7.44 0 0 0-.23-1.3 8.92 8.92 0 0 1-.23-1.17 1.68 1.68 0 0 1 1.23-2 2.44 2.44 0 0 1 1.95.14 3.39 3.39 0 0 1 1.45 2.18 7.64 7.64 0 0 1 .2 1 7.07 7.07 0 0 0 .6 2.11 17.41 17.41 0 0 1 1.57 4.86 16 16 0 0 0 .46 2.43c.12.53.13.54.07.63l-.05.07h-.08l-.09-.4a.19.19 0 0 0-.16.2s0-.23-.1-.42a17.44 17.44 0 0 1-.47-2.5 17.8 17.8 0 0 0-1.53-4.73 7.56 7.56 0 0 1-.63-2.1 6.09 6.09 0 0 0-.19-1 3 3 0 0 0-1.25-1.94 2.11 2.11 0 0 0-1.64-.1 1.26 1.26 0 0 0-.92 1.5 8.77 8.77 0 0 0 .21 1.12A7.58 7.58 0 0 1 29.3 71a11.67 11.67 0 0 0 .55 2.54v.17c.11.37.19.69.26 1s.16.67.28 1.06c.79 2.43.54 2.51.38 2.57s-.4.14-1.26-2.3a27 27 0 0 0-1.48-3.19 23 23 0 0 1-1.03-2.3 3.07 3.07 0 0 0-1.64-1.7 2.08 2.08 0 0 0-1.65 0c-.52.24-.75.48-.49 1.67.19.91.5 2.68.53 2.9.42 1 .77 1.73 1.08 2.38A19.93 19.93 0 0 1 26 78.49c.07.22.17.59.28 1.05.35 1.39.93 3.72 1.64 4.62s1.46 2.07 2.21 3.22a29.88 29.88 0 0 0 2.33 3.31 63.11 63.11 0 0 0 5.35 4.13 105.33 105.33 0 0 1 8.66 6.77c3.16 3.08-2.7 13.41-2.95 13.83z"/>
            <path fill="#000" d="M45.75 86.7s-1.8-3.32-2.43-4.58a32.79 32.79 0 0 1-1.92-4.7c-.35-1.28-1.29-3.4-2.06-3.92a1.62 1.62 0 0 0-1.55-.07l-.19-.36a2 2 0 0 1 2 .08c.9.61 1.87 2.84 2.23 4.15a31.45 31.45 0 0 0 1.9 4.63c.62 1.25 2.4 4.54 2.41 4.58z"/>
            <path fill="#000" d="M40.76 84.34s-.59-2.12-1.22-3.72a19.92 19.92 0 0 1-1.22-4.07 29.91 29.91 0 0 0-1.69-5.25c-.35-.88-1.37-2.13-2.38-2.2s-1 .46-1 .46h-.41s.12-.92 1.49-.83 2.35 1.49 2.73 2.46a35.32 35.32 0 0 1 1.73 5.38 19.06 19.06 0 0 0 1.19 4c.64 1.62 1.23 3.74 1.23 3.76z"/>
            <path fill="#000" d="M31.92 83.38a.84.84 0 0 1-.27 0 7.52 7.52 0 0 1-1.86-1.5s-.93-1.16-.41-2.1a3.1 3.1 0 0 1 2.28-.94 5.8 5.8 0 0 1 1.78 1.31 1.27 1.27 0 0 1 .36 1.71c-.51.69-1.21 1.52-1.88 1.52zm-1.82-1.82a6.94 6.94 0 0 0 1.69 1.38c.37.14 1-.39 1.65-1.36a.89.89 0 0 0-.29-1.18 5.19 5.19 0 0 0-1.62-1.21 3 3 0 0 0-1.8.74c-.36.67.27 1.55.37 1.63z"/>
            <path fill="#000" d="M53.69 46.81c-.25-.13-6-3.2-6.84-7.05-.17-.82-.36-1.58-.54-2.32-.66-2.7-1.18-4.83-.46-7.39.88-3.12 3-5.66 4.7-5.66a1.69 1.69 0 0 1 1.3.36c.15.11.24.19.69.15a6.22 6.22 0 0 0 1.32-.32 2 2 0 0 1 1.27-.17c.28.11.55.53 1 1.2a5 5 0 0 0 1.17 1.52 2.14 2.14 0 0 0 .94.25 2.73 2.73 0 0 1 1.91.89c1.24 1.36 1.86 3.5 1.86 6.35a9 9 0 0 1-1.66 5 5.35 5.35 0 0 0-.74 1.38 6 6 0 0 0 .39 4l-.34.21a6.29 6.29 0 0 1-.44-4.28 5.22 5.22 0 0 1 .78-1.56 8.49 8.49 0 0 0 1.6-4.75c0-2.75-.59-4.8-1.76-6.09a2.36 2.36 0 0 0-1.66-.75 2.61 2.61 0 0 1-1.1-.31 5.28 5.28 0 0 1-1.3-1.65 4 4 0 0 0-.77-1A1.89 1.89 0 0 0 54 25a6.89 6.89 0 0 1-1.42.33 1.11 1.11 0 0 1-1-.23c-.16-.13-.34-.27-1.06-.27-1.35 0-3.41 2.16-4.31 5.37-.7 2.46-.19 4.55.46 7.19.18.74.37 1.5.54 2.33.77 3.67 6.57 6.75 6.63 6.78z"/>
            <path fill="#000" d="M51.42 45.09H51a3.07 3.07 0 0 0-.59-1.39 6.85 6.85 0 0 1-.92-2 5.58 5.58 0 0 1 .27-2.17 7.41 7.41 0 0 0 .24-4.07c-.56-1.47-1.14-1.53-1.76-1.6a2.13 2.13 0 0 1-.76-.17 3.4 3.4 0 0 1-1.86-2.35H46a3 3 0 0 0 1.63 2 1.86 1.86 0 0 0 .63.13c.68.08 1.45.16 2.09 1.85a7.69 7.69 0 0 1-.17 4.33 5.45 5.45 0 0 0-.27 2 6.33 6.33 0 0 0 .87 1.87 3.26 3.26 0 0 1 .64 1.57z"/>
            <path fill="#000" d="m63.87 48.21-.1-.38a36.08 36.08 0 0 1 4.68-.83c1.81-.21 4.81-2.85 6.61-4.43a17.83 17.83 0 0 1 1.44-1.2c.87-.56.83-1.13.77-2v-.18a6.56 6.56 0 0 1 .5-2.06 6.35 6.35 0 0 0 .52-2.32c-.08-.45-.24-.48-.49-.53a.74.74 0 0 1-.64-.46 1.67 1.67 0 0 1 0-.91 3.5 3.5 0 0 0-.37-2.62 2.64 2.64 0 0 0-2-1.47 3.51 3.51 0 0 1-1.06-.39 6.73 6.73 0 0 1-.77-.58 3.18 3.18 0 0 0-2.14-1c-1.46-.05-3.28 1.56-3.75 2.21a3.75 3.75 0 0 1-1.32.83 5.82 5.82 0 0 0-2.59 1.93 11.77 11.77 0 0 0-1.16 3.5l-.39-.07a12.12 12.12 0 0 1 1.25-3.63 6.11 6.11 0 0 1 2.77-2.08 4 4 0 0 0 1.16-.71c.53-.73 2.46-2.44 4.09-2.38a3.61 3.61 0 0 1 2.39 1.05 5.69 5.69 0 0 0 .72.55 3.11 3.11 0 0 0 .94.34 3 3 0 0 1 2.27 1.66 3.87 3.87 0 0 1 .41 2.89 1.42 1.42 0 0 0 0 .69c.06.15.15.18.35.22s.68.13.81.85a6.68 6.68 0 0 1-.54 2.52 7 7 0 0 0-.49 1.9v.18a2.12 2.12 0 0 1-1 2.35c-.25.17-.76.61-1.4 1.17-1.95 1.71-4.89 4.3-6.82 4.53a40 40 0 0 0-4.65.86z"/>
            <path fill="#000" d="M73.45 58.65h-.08c-4.45 0-9.28-3.33-10-4.17l.3-.26c.68.78 5.46 4 9.72 4 2.62 0 5.45-1.54 8.38-4.65l.19-.21a3.72 3.72 0 0 0 .47-2.19v-.43a10.91 10.91 0 0 1 .38-1.66 27.4 27.4 0 0 0 .68-2.82 2.17 2.17 0 0 0-.58-2.23 2.59 2.59 0 0 1-.51-.72 3.91 3.91 0 0 1-.24-1.25c0-.37-.08-.78-.18-1.29a4 4 0 0 0-2-2.36 7.65 7.65 0 0 0-2.34 0v-.4a8.33 8.33 0 0 1 2.53 0 4.32 4.32 0 0 1 2.27 2.67 9.74 9.74 0 0 1 .18 1.32 4 4 0 0 0 .22 1.14 2.28 2.28 0 0 0 .43.6 2.56 2.56 0 0 1 .68 2.57 27.76 27.76 0 0 1-.68 2.86 9.41 9.41 0 0 0-.37 1.57v.43a3.93 3.93 0 0 1-.59 2.46l-.18.19c-3.06 3.18-5.95 4.82-8.68 4.83z"/>
            <path fill="#000" d="M77.67 66.67h-.24c-2.72-.32-3.21-.68-3.28-.76l.28-.28s.46.34 3 .64a4.33 4.33 0 0 0 3-1.44 14.71 14.71 0 0 0 3.65-4.91 2.34 2.34 0 0 0-.63-1.29 4 4 0 0 1-.46-.7 2.36 2.36 0 0 1 0-1.38 3.13 3.13 0 0 0 0-1.29 4 4 0 0 0-.99-1.58l.27-.29a4.45 4.45 0 0 1 1.17 1.76 3.73 3.73 0 0 1 0 1.45 2.22 2.22 0 0 0 0 1.15 4.16 4.16 0 0 0 .43.63 2.68 2.68 0 0 1 .71 1.53c0 .67-1.87 3.5-3.79 5.21a5 5 0 0 1-3.12 1.55z"/>
            <path fill="#000" d="M49.92 61.4a4.22 4.22 0 0 1-2.12-.68c-1.88-1.09-2-3.18-2.14-4.7a6.47 6.47 0 0 0-.15-1.25 2.27 2.27 0 0 0-1.1-1.4 4.24 4.24 0 0 1-.95-.87c-.77-1-.78-2.57-.54-4.68a4.3 4.3 0 0 1 3.61-3.62c1.28-.2 5.91 1.5 6.11 1.57l-.14.37c-1.31-.48-4.93-1.7-5.91-1.54a4.16 4.16 0 0 0-2.82 1.88 6.3 6.3 0 0 0 .84 2.86 6.89 6.89 0 0 0 2.75 1.2l.17.05c.46.13 1 .8 1.53 1.51a6 6 0 0 0 1 1.1l.1.07a6.71 6.71 0 0 1 1.63 1.26c.56.56.4 2.34.17 4.28-.05.42-.1.78-.11 1a1.62 1.62 0 0 1-.85 1.34 2.13 2.13 0 0 1-1.08.25zm-6.46-14.22a3.73 3.73 0 0 0-.14.68c-.23 2-.23 3.46.46 4.4a3.48 3.48 0 0 0 .86.78 2.68 2.68 0 0 1 1.26 1.63 7.44 7.44 0 0 1 .16 1.33c.11 1.51.24 3.39 1.95 4.38 1.48.87 2.37.64 2.76.42a1.23 1.23 0 0 0 .67-1c0-.23.06-.6.11-1 .15-1.22.42-3.49 0-4a6.74 6.74 0 0 0-1.56-1.2l-.1-.07a5.56 5.56 0 0 1-1.09-1.2c-.44-.57-1-1.27-1.33-1.37h-.16a7.55 7.55 0 0 1-2.94-1.3 5.23 5.23 0 0 1-.91-2.48z"/>
            <path fill="#000" d="M63.43 65.23a4.42 4.42 0 0 1-2.32-1 4.83 4.83 0 0 0-.52-.34 2.92 2.92 0 0 0-1.16 0 17.66 17.66 0 0 1-2.87 0c-2.58-.16-4.37-3.13-4.79-4.47s1.57-5.81 1.79-6.32l.37.16c-.6 1.36-2.08 5.08-1.77 6 .39 1.25 2.05 4 4.42 4.19a18.37 18.37 0 0 0 2.81 0 2.78 2.78 0 0 1 1.37.06 6.37 6.37 0 0 1 .58.37c.67.47 1.68 1.18 2.55.86a3.19 3.19 0 0 0 1.43-1.09 3.49 3.49 0 0 1 1-.87 7.35 7.35 0 0 1 1.15-.4c.85-.26 2.12-.65 2.22-1.07 0-.1-.05-.23-.2-.37a2 2 0 0 0-1.73-.58 2.29 2.29 0 0 1-1.25-.19 11.58 11.58 0 0 1-3.27-2.92q-.39-.6-.72-1.08c-.44-.63-.64-.93-.64-1.15h.4a4.85 4.85 0 0 0 .57.93c.22.31.47.68.72 1.09a11.67 11.67 0 0 0 3.12 2.78 1.91 1.91 0 0 0 1 .14 2.41 2.41 0 0 1 2 .68.81.81 0 0 1 .32.76c-.15.65-1.39 1-2.49 1.36a6.58 6.58 0 0 0-1.09.38 3.33 3.33 0 0 0-.87.77A3.65 3.65 0 0 1 64 65.13a1.8 1.8 0 0 1-.57.1z"/>
            <path fill="#000" d="M64.58 62a3 3 0 0 1-1.47-.55 5.27 5.27 0 0 0-2.25-.82 12.4 12.4 0 0 0-4.29.86 8.11 8.11 0 0 1-1.89.49 4.07 4.07 0 0 1-1.89-.56L53 61a3.52 3.52 0 0 0 1.67.5 8.85 8.85 0 0 0 1.77-.47 12.57 12.57 0 0 1 4.45-.88 5.69 5.69 0 0 1 2.41.87 2.19 2.19 0 0 0 1.47.48 5.22 5.22 0 0 0 1.84-1 2.72 2.72 0 0 1 1.18-.5v.4a3 3 0 0 0-1 .54 5.62 5.62 0 0 1-2 1z"/>
            <path fill="#000" d="M41.39 53.42a9.57 9.57 0 0 1-5.78-1.82c-2.27-1.76-3.35-4.56-3.2-8.34.13-3.61 1.32-6.27 3.53-7.91a9.06 9.06 0 0 1 5.29-1.69c2.69 0 5.52 4.27 5.64 4.45l-.33.22s-2.83-4.27-5.31-4.27a8.69 8.69 0 0 0-5.06 1.61c-2.1 1.57-3.23 4.12-3.37 7.6-.13 3.64.89 6.34 3.05 8A9.6 9.6 0 0 0 44 52.66l.11.38a9.42 9.42 0 0 1-2.72.38z"/>
            <path fill="#000" d="M36.51 52.19a4.91 4.91 0 0 1-1-2.89 9.23 9.23 0 0 0-.69-3.18 2.18 2.18 0 0 1-.35-1.67v-.34a12.58 12.58 0 0 0-.25-2.51c-.09-.57-.18-1.16-.26-1.8a4.88 4.88 0 0 1 .54-3l.34.21a4.56 4.56 0 0 0-.48 2.76c.07.63.17 1.22.26 1.79a13.18 13.18 0 0 1 .25 2.59v.35a1.84 1.84 0 0 0 .3 1.45 9.62 9.62 0 0 1 .74 3.34 4.64 4.64 0 0 0 .91 2.62z"/>
            <path fill="#000" d="M53.65 72.72a4 4 0 0 1-1.65-.67 6.8 6.8 0 0 0-.87-.46 1.47 1.47 0 0 0-1 0 3.32 3.32 0 0 1-1.68 0 2.13 2.13 0 0 1-1.67-1.52 6.39 6.39 0 0 0-.78-1.23 4.56 4.56 0 0 0-2.78-1.28 12.92 12.92 0 0 1-2.36-.71C38.9 66 38.57 63.4 38.4 62v-.24a11.72 11.72 0 0 0-.25-1.19 11.94 11.94 0 0 1-.42-4.33C38 54 41.91 53 42.08 53l.09.38s-3.81.95-4.08 2.94a11.87 11.87 0 0 0 .42 4.18 12.09 12.09 0 0 1 .25 1.22v.25c.16 1.3.46 3.72 2.25 4.51a12 12 0 0 0 2.29.69 4.92 4.92 0 0 1 3 1.43 6.66 6.66 0 0 1 .76 1.31c.32.7.52 1.11 1.39 1.3a2.91 2.91 0 0 0 1.51 0 1.81 1.81 0 0 1 1.25 0 7.49 7.49 0 0 1 .92.48c.88.5 1.52.83 1.79.46s0-1.22-.26-2.09a6.73 6.73 0 0 1-.38-2.61 12.06 12.06 0 0 1 .4-1.53 4.24 4.24 0 0 0 .33-1.8 9.41 9.41 0 0 0-1.25-2.7l.34-.22a9.91 9.91 0 0 1 1.31 2.87 4.74 4.74 0 0 1-.34 2 11.33 11.33 0 0 0-.4 1.48A6.34 6.34 0 0 0 54.1 70c.28 1.05.53 2 .19 2.43a.75.75 0 0 1-.64.29z"/>
            <path fill="#000" d="M62.68 73.82c-2.27 0-4.63-2.09-5.94-3.24S54 64 54 63.76l.38-.09s1.29 5.41 2.64 6.61 3.89 3.43 6.12 3.11a3.32 3.32 0 0 0 1.71-.6c.31-.24.52-.36 1.27-.23 1.06.19 4.62.63 5.74-1.52a5.1 5.1 0 0 0 .66-2.04 1.46 1.46 0 0 1 .43-1c.11-.13.23-.25.35-.37.64-.65 1.14-1.16.63-2.15-.62-1.21-4.79-2.65-6.68-2.54v-.4c1.9-.11 6.31 1.3 7.06 2.76.64 1.24-.07 2-.7 2.61a4 4 0 0 0-.35.36 1.11 1.11 0 0 0-.32.8 5.49 5.49 0 0 1-.73 2.24C71 73.62 67.16 73.15 66 73c-.62-.11-.73 0-1 .16a3.54 3.54 0 0 1-1.88.68 4.19 4.19 0 0 1-.44-.02z"/>
            <path fill="#000" d="M57.19 53.09c-.74-.78-1.83-.2-1.61.37s.23 1.11 1 .82.84-.95.61-1.19z"/>
            <path fill="#000" d="M54.12 49.22c-.31-.41-.78-.26-.85.26s-.25 1.3.31 1.12.92-.14.73-.76"/>
            <path fill="#000" d="M54.6 51.44c-.39-.34-.81-.1-.78.43s0 1.31.52 1 .88-.32.57-.89"/>
            <path fill="#000" d="M60 52.5c.16.49.65.5.89 0s.63-1.15 0-1.16-.91-.15-.93.5"/>
            <path fill="#000" d="M57.09 49.14c-.48.2-.46.69 0 .89s1.19.56 1.16 0 .08-.93-.56-.9"/>
            <path fill="#000" d="M57.52 48.18c.16.48.65.49.89 0s.63-1.15.05-1.17-.92-.14-.93.5"/>
            <path fill="#000" d="M56.36 52c.16.49.65.5.89 0s.64-1.15.06-1.16-.92-.15-.94.5"/>
            <path fill="#000" d="M54.81 48.53c-.14.79.31.8.7.8s.64.11.62-.4-.27-.91-.66-.91a.67.67 0 0 0-.66.51z"/>
            <path fill="#000" d="M63.23 49.37c-.11.64.25.65.58.65s.51.09.49-.33-.22-.74-.53-.74a.55.55 0 0 0-.54.42z"/>
            <path fill="#000" d="M60.78 46.53c-.1.6.25.6.55.6s.48.09.47-.3-.21-.7-.51-.7a.53.53 0 0 0-.51.4z"/>
            <path fill="#000" d="M59.94 45.58c-.78-.15-.79.3-.8.69s-.13.62.38.61.91-.25.91-.63a.67.67 0 0 0-.49-.67z"/>
            <path fill="#000" d="M53.64 47.66c-.11.65.26.65.58.65s.51.1.5-.32-.22-.75-.54-.75a.56.56 0 0 0-.54.42z"/>
            <path fill="#000" d="M58.6 52c-.94.13-.78.64-.63 1.08s.1.76.67.55.92-.64.78-1.08a.79.79 0 0 0-.82-.55z"/>
            <path fill="#000" d="M59 50.46c-.52.39-.25.65 0 .87s.31.42.58.1.35-.69.11-.91a.57.57 0 0 0-.69-.06z"/>
            <path fill="#000" d="M55.61 46.3c-.41.24-.86.85-.38 1.11s1.32.68 1.52 0 .41-1-.14-1.11-.79-.12-1 0z"/>
            <path fill="#000" d="M59.21 48.46c-.1.46.06 1.2.58 1s1.38-.53 1-1.12-.47-1-.91-.65-.62.52-.67.77z"/>
            <path fill="#000" d="M62.28 49.71c-.13-.46-.62-1-1-.63s-1 1.13-.35 1.48.88.63 1.11.12.31-.68.24-.97z"/>
            <path fill="#000" d="M57.35 45.41c-.44.32 0 .75.29.89s.93.32 1.08-.18.11-1.24-.66-1-.56.18-.71.29z"/>
            <path fill="#000" d="M59.18 54c-.41.3 0 .71.28.84s.87.29 1-.17.11-1.17-.62-.92-.51.15-.66.25z"/>
            <path fill="#000" d="M62.73 52c-.14.53.45.6.78.51s.92-.35.73-.82-.7-1-1.13-.34-.34.44-.38.65z"/>
            <path fill="#000" d="M61.94 48.32c-.13.52.45.6.79.5s.92-.34.72-.82-.69-1-1.12-.33-.33.46-.39.65z"/>
            <path fill="#000" d="M56.21 50.43c.21-.5-.36-.66-.71-.61s-1 .21-.83.71.55 1.12 1.07.49.4-.42.47-.59z"/>
            <path fill="#000" d="M61.21 53.56c0 .54.61.43.91.23s.76-.62.42-1-1-.75-1.18 0-.17.58-.15.77z"/>
            <path fill="#000" d="M93.42 26.32a48.66 48.66 0 0 0-83.07 34.4v54.79h33.11c0-.14.16-.24-.22-.39H10.75v-54.4A48.26 48.26 0 0 1 93.14 26.6a47.94 47.94 0 0 1 14.13 34.12v54.4H75.13c-.21.1-.33.16-.21.39h32.75V60.72a48.34 48.34 0 0 0-14.25-34.4z"/>
            <path fill="#000" d="M57.09 115.51h4.19a.28.28 0 0 0 0-.08v-.07a.2.2 0 0 1 0-.07c0-.07-.12-.11-.13-.17h-3.97c-.05.15-.05.24-.09.39z"/>
            <path fill="none" d="M308.07 0v125.71H0V0h308.07z"/>
            <path fill="#000" d="M156.31 36.66h-2l-.07-2-.18-5.25-.48-14.22-8.49 21.65h-.51c-2.84-6.84-5.69-13.79-8.58-20.69l-.44 12.55v.3l-.18 5a1.77 1.77 0 0 0 0 .23l-.08 2.4h-.68l.08-2.15a.45.45 0 0 1 0-.11l.2-5.7.46-13.19a1.61 1.61 0 0 0-1.36-1.56h-.26v-.37H137l8.49 20.75 8-20.78h1.87l.07 2v.3L156 29.3l.06 1.29.16 4v.07z"/>
            <path fill="#000" d="M174.42 36.19v.46h-10.6V18.72a1.46 1.46 0 0 0-1.25-1.6h-.22v-.31h11.94v.45h-8.73v8.56h6.94v.48h-6.94v9.9z"/>
            <path fill="#000" d="M197.08 29.31v7.36l-1.21-1.05a17.61 17.61 0 0 1-6.36 1.25c-5.58 0-9.6-4.24-9.6-10.09s4-10.09 9.6-10.09a16.06 16.06 0 0 1 7.43 1.85v3h-.36c-.1-.23-.21-.57-.32-.8a5.72 5.72 0 0 0-3.65-3.22 17.58 17.58 0 0 0-3.18-.32c-4.46 0-7.67 4-7.67 9.61s3.21 9.61 7.67 9.61a17.75 17.75 0 0 0 6-1.14v-6z"/>
            <path fill="#000" d="M217.14 36.36v.31h-3.06l-2.59-7.09h-7.43l-1.66 5-.7 2.1h-.56l.55-1.61.06-.13 1.81-5.35L208 16.35h.44l6.83 18.53c.49 1.02 1.06 1.48 1.87 1.48zm-5.81-7.24-3.68-10.38-3.45 10.38z"/>
            <path fill="#000" d="M236.73 16.78V37h-.55c-4.27-6.22-8.56-12.4-12.86-18.62v18.3h-.59V35a1 1 0 0 0 0-.24v-16a1.45 1.45 0 0 0-1.25-1.59h-.22l-.05-.34h3L236.16 34V16.78z"/>
            <path fill="#000" d="M153.72 68v8.58l-1.41-1.22a20.84 20.84 0 0 1-7.41 1.45c-6.49 0-11.18-5-11.18-11.75s4.69-11.75 11.18-11.75a18.53 18.53 0 0 1 8.65 2.16v3.45h-.41c-.12-.27-.25-.66-.38-.93a6.65 6.65 0 0 0-4.24-3.75 20.91 20.91 0 0 0-3.71-.37c-5.19 0-8.94 4.69-8.94 11.19s3.75 11.19 8.94 11.19a20.47 20.47 0 0 0 7-1.33V68z"/>
            <path fill="#000" d="M174.24 76.23v.32h-3.07l-2.59-7.1h-7.43l-1.66 5-.7 2.1h-.56l.55-1.61.06-.13 1.81-5.36 4.47-13.22h.44l6.83 18.52c.46 1.03 1.03 1.48 1.85 1.48zM168.42 69l-3.67-10.37L161.29 69z"/>
            <path fill="#000" d="M193.07 60.24h-.21l-.6-1.19a3.27 3.27 0 0 0-2.78-1.88h-4.15v19.41h-1.77V57.17h-4.25a3.25 3.25 0 0 0-2.74 1.88l-.6 1.19h-.22c.08-1 .19-2.36.27-3.33v-.23h16.73v.2c.08.03.3 3.12.32 3.36z"/>
            <path fill="#000" d="M214.62 56.68v19.87h-1.76V66.34h-12.52v10.21h-1.76V56.68h1.76v9.17h12.52v-9.17z"/>
            <path fill="#000" d="M233.43 76.06a2 2 0 0 1 0 .26v.2h-10.6V58.59a1.45 1.45 0 0 0-1.35-1.59h-.22v-.31h11.94v.45h-8.73v8.56h6.94v.48h-6.94v9.89z"/>
            <path fill="#000" d="M255.54 76.09v.38h-.65c-1.74 0-2.07-.23-4.49-3.17S246 68 245.26 67h-3.13v9.52h-1.74V58.59a1.45 1.45 0 0 0-1.25-1.59h-.22v-.26l7.62-.09c3.42 0 5.93 2.14 5.93 5.11 0 2.5-1.93 4.43-4.82 5h-.4l-.37.05a4.57 4.57 0 0 1-.55.06 3.14 3.14 0 0 1 1.88 1.13c1 1.29 2.61 3.25 4.5 5.57s1.98 2.52 2.83 2.52zM246 66.53c2.86 0 4.56-2 4.56-4.78s-1.72-4.67-4.08-4.67h-4.38v9.44z"/>
            <path fill="#000" d="M272 71.47c0 3-2.4 5.25-5.66 5.25a14.8 14.8 0 0 1-6.77-1.51V72h.24c.11.23.22.57.33.8a5.74 5.74 0 0 0 3.44 3.2 16.06 16.06 0 0 0 2.77.28c2.59 0 4.46-1.71 4.46-4 0-1.88-2.36-3.94-5.6-4.88s-5.36-3.1-5.36-5.21a5.43 5.43 0 0 1 5.66-5.56 11.82 11.82 0 0 1 5.49 1.42v3.16h-.19l-.81-1.85a3.8 3.8 0 0 0-1.88-1.85 8.7 8.7 0 0 0-2.64-.49 4.26 4.26 0 0 0-4.43 4.39c0 1.71 2.31 3.59 5.49 4.53s5.46 3.25 5.46 5.53z"/>
            <path fill="#000" d="m162.75 93.27-5.18 18.18-.78 2.71L156 117h-.51L150 100.14l-.29-.87-.91-2.81-4 14.48-.88 3.21-.78 2.8h-.54l-6.83-21.13-.17-.52a2.38 2.38 0 0 0-1.9-1.66v-.37h3.49l.11.36.5 1.65 3.5 11.43 2.16 7.08.15-.56.91-3.23 4.77-17.09h.5l.91 2.85.28.87 5.43 17 .09-.31.22-.78.73-2.59 4.7-16.68z"/>
            <path fill="#000" d="M180.87 115.94a2.34 2.34 0 0 0 0 .26v.2h-10.71V98.47a1.46 1.46 0 0 0-1.25-1.6h-.22v-.31h11.95V97h-8.73v8.56h6.93v.49h-6.93v9.89z"/>
            <path fill="#000" d="M189.57 116h8.91v.42h-10.65V98.49a1.46 1.46 0 0 0-1.26-1.59h-.21v-.31h3.21zm8.92 0z"/>
            <path fill="#000" d="M207.17 116h8.92v.42h-10.66V98.49a1.46 1.46 0 0 0-1.25-1.59h-.22v-.31h3.21zm8.92 0z"/>
            <path fill="#000" d="M237.07 96.53v20.21h-.55c-4.27-6.22-8.56-12.4-12.86-18.61v18.3h-.59v-1.7a1 1 0 0 0 0-.24v-16a1.46 1.46 0 0 0-1.25-1.59h-.22l-.05-.34h3l11.89 17.24V96.53z"/>
            <path fill="#000" d="M254.74 115.94v.46H244V98.47a1.46 1.46 0 0 0-1.25-1.6h-.21v-.31h11.94V97h-8.73v8.56h6.93v.49h-6.93v9.89z"/>
            <path fill="#000" d="M273.23 111.35c0 3.05-2.39 5.25-5.66 5.25a14.8 14.8 0 0 1-6.77-1.51v-3.17h.2c.11.23.22.57.33.8a5.74 5.74 0 0 0 3.43 3.11 16.06 16.06 0 0 0 2.77.28c2.58 0 4.46-1.71 4.46-4 0-1.88-2.36-3.93-5.6-4.87s-5.36-3.11-5.36-5.22a5.43 5.43 0 0 1 5.66-5.56 11.71 11.71 0 0 1 5.49 1.52v3.16h-.19l-.81-1.88a3.86 3.86 0 0 0-1.88-1.86 9 9 0 0 0-2.64-.48 4.25 4.25 0 0 0-4.43 4.39c0 1.71 2.31 3.59 5.49 4.53s5.51 3.23 5.51 5.51z"/>
            <path fill="#000" d="M291.18 111.35c0 3.05-2.4 5.25-5.66 5.25a14.8 14.8 0 0 1-6.77-1.51v-3.17h.25c.11.23.22.57.33.8a5.72 5.72 0 0 0 3.42 3.11 16.27 16.27 0 0 0 2.78.28c2.58 0 4.46-1.71 4.46-4 0-1.88-2.37-3.93-5.6-4.87S279 104.08 279 102a5.43 5.43 0 0 1 5.66-5.56 11.71 11.71 0 0 1 5.49 1.52v3.16h-.19l-.82-1.88a3.8 3.8 0 0 0-1.87-1.86 9.09 9.09 0 0 0-2.64-.48 4.26 4.26 0 0 0-4.44 4.39c0 1.71 2.32 3.59 5.5 4.53s5.49 3.25 5.49 5.53z"/>
        </g>
    </g>
</svg>