<svg preserveAspectRatio="xMidYMid meet" data-bbox="0 0 136.74 136.74" viewBox="0 0 136.74 136.74" xmlns="http://www.w3.org/2000/svg" data-type="ugc" role="presentation" aria-hidden="true">
    <g>
        <g>
            <path fill="#000" d="M56.15 60c-.52-.26-12.59-6.68-14.28-14.72-.36-1.72-.75-3.3-1.12-4.84-1.38-5.64-2.47-10.09-1-15.44 2-7.29 6.69-11.81 9.81-11.81a3.61 3.61 0 0 1 2.71.74c.3.24.5.4 1.44.31a12.49 12.49 0 0 0 2.77-.66 4.1 4.1 0 0 1 2.64-.36c.59.24 1.14 1.11 2 2.51a11.08 11.08 0 0 0 2.45 3.18 4.6 4.6 0 0 0 2 .53 5.63 5.63 0 0 1 4 1.84c2.58 2.84 3.89 7.31 3.89 13.26 0 4.73-2 8-3.46 10.35a10.59 10.59 0 0 0-1.5 3c-1 5.15.8 8.32.82 8.35l-.69.41c-.08-.14-2-3.45-.91-8.91a10.88 10.88 0 0 1 1.6-3.25C70.8 42 72.66 39 72.66 34.51c0-5.75-1.25-10-3.69-12.72a4.93 4.93 0 0 0-3.49-1.59 5.22 5.22 0 0 1-2.29-.65 11.18 11.18 0 0 1-2.71-3.43 8 8 0 0 0-1.62-2.19 4 4 0 0 0-2.11.38 13.21 13.21 0 0 1-2.94.7 2.36 2.36 0 0 1-2-.49c-.33-.26-.7-.56-2.21-.56-2.84 0-7.15 4.51-9 11.22-1.44 5.15-.38 9.52 1 15 .38 1.54.77 3.14 1.13 4.86 1.62 7.68 13.74 14.12 13.87 14.19z"/>
            <path fill="#000" d="M51.38 56.4h-.8a6.32 6.32 0 0 0-1.24-2.91 14.27 14.27 0 0 1-1.91-4.14c-.26-1.09.12-2.69.55-4.53.63-2.65 1.4-5.94.41-8.57-1.17-3.08-2.4-3.2-3.69-3.34a4.74 4.74 0 0 1-1.58-.35c-1.75-.79-3.89-3.21-3.89-4.89H40c0 1.24 1.79 3.42 3.42 4.17a4.31 4.31 0 0 0 1.33.28c1.41.14 3 .31 4.35 3.85 1.09 2.86.28 6.28-.37 9a11.23 11.23 0 0 0-.55 4.16A13.44 13.44 0 0 0 50 53.07a6.88 6.88 0 0 1 1.38 3.33z"/>
            <path fill="#000" d="m77.41 62.9-.2-.78A80.23 80.23 0 0 1 87 60.3c3.79-.45 10.07-6 13.82-9.26 1.36-1.19 2.44-2.14 3-2.52 1.81-1.17 1.73-2.36 1.61-4.17v-.38a14.25 14.25 0 0 1 1-4.29c.6-1.78 1.28-3.81 1.1-4.86s-.52-1-1-1.12a1.53 1.53 0 0 1-1.33-.94 3.43 3.43 0 0 1 0-1.9 7.27 7.27 0 0 0-.78-5.49 5.49 5.49 0 0 0-4.21-3.08 7.08 7.08 0 0 1-2.2-.81 14.7 14.7 0 0 1-1.61-1.21 6.65 6.65 0 0 0-4.49-2c-3.07-.12-6.86 3.26-7.85 4.62a7.89 7.89 0 0 1-2.75 1.73c-1.92.94-4.31 2.11-5.42 4A25.43 25.43 0 0 0 73.38 36l-.79-.13a25.84 25.84 0 0 1 2.63-7.59c1.23-2.16 3.78-3.39 5.78-4.37a8.12 8.12 0 0 0 2.45-1.49c1.1-1.51 5.12-5.08 8.53-5a7.5 7.5 0 0 1 5 2.18 14.84 14.84 0 0 0 1.52 1.16 6.75 6.75 0 0 0 2 .7 6.34 6.34 0 0 1 4.64 3.54 8 8 0 0 1 .86 6 3 3 0 0 0-.08 1.45c.13.32.32.37.74.45.59.12 1.41.28 1.67 1.77.23 1.26-.46 3.29-1.13 5.26a14.35 14.35 0 0 0-1 4v.37c.13 1.87.24 3.48-2 4.9-.53.35-1.59 1.28-2.92 2.45-4.07 3.58-10.21 9-14.25 9.46a76.88 76.88 0 0 0-9.62 1.79z"/>
            <path fill="#000" d="M97.43 84.69h-.16c-9.3-.1-19.38-7-20.91-8.72l.61-.52c1.42 1.64 11.41 8.34 20.31 8.45 5.52.06 11.4-3.21 17.52-9.72.17-.19.31-.33.41-.43.85-.85.93-3 1-4.58v-.92a19.86 19.86 0 0 1 .79-3.45 53.88 53.88 0 0 0 1.41-5.9c.48-2.81-.34-3.71-1.21-4.67a5.28 5.28 0 0 1-1.06-1.49 8.36 8.36 0 0 1-.51-2.63 24.5 24.5 0 0 0-.36-2.68 8.35 8.35 0 0 0-4.25-5c-1-.37-3.87-.16-4.89 0l-.09-.79c.16 0 3.88-.43 5.26.08s4.21 2.88 4.75 5.56a23.88 23.88 0 0 1 .37 2.76 7.93 7.93 0 0 0 .45 2.38 4.53 4.53 0 0 0 .92 1.27c.92 1 2 2.16 1.41 5.34a56.22 56.22 0 0 1-1.43 6 18.67 18.67 0 0 0-.77 3.27v.9c-.07 1.8-.15 4-1.23 5.12l-.39.41c-6.21 6.61-12.25 9.96-17.95 9.96z"/>
            <path fill="#000" d="M106.26 101.46a4.36 4.36 0 0 1-.51 0c-5.69-.65-6.7-1.41-6.85-1.56l.57-.56s1 .71 6.37 1.33c1.68.19 3.85-.85 6.27-3 4.2-3.75 7.64-9.43 7.64-10.27a4.88 4.88 0 0 0-1.33-2.71 10.78 10.78 0 0 1-1-1.45 5 5 0 0 1-.08-2.89 7 7 0 0 0 .06-2.69 8.52 8.52 0 0 0-2.21-3.29l.53-.59a9.09 9.09 0 0 1 2.45 3.67 7.5 7.5 0 0 1 0 3 4.41 4.41 0 0 0 0 2.41 9 9 0 0 0 .89 1.32 5.57 5.57 0 0 1 1.49 3.2c0 1.25-3.66 7.08-7.91 10.87-2.41 2.13-4.55 3.21-6.38 3.21z"/>
            <path fill="#000" d="M48.27 90.45A8.91 8.91 0 0 1 43.85 89c-3.92-2.29-4.23-6.63-4.46-9.81a16.11 16.11 0 0 0-.31-2.62 4.91 4.91 0 0 0-2.31-2.94 8.19 8.19 0 0 1-2-1.82c-1.61-2.18-1.62-5.35-1.12-9.76.58-5.1 5.17-7.16 7.52-7.53 2.68-.44 12.35 3.12 12.76 3.27l-.27.75c-2.74-1-10.31-3.56-12.36-3.23a8.76 8.76 0 0 0-5.91 3.94c.13 1.4.67 4.92 1.75 6 1.28 1.28 4.2 2.08 5.76 2.51l.35.1c1 .27 2.05 1.66 3.2 3.14a12.08 12.08 0 0 0 2.08 2.32l.2.13a14.78 14.78 0 0 1 3.41 2.63c1.16 1.17.82 4.9.34 8.94-.11.87-.2 1.63-.22 2.09a3.43 3.43 0 0 1-1.84 2.79 4.46 4.46 0 0 1-2.15.55zm-13.5-29.76a8.34 8.34 0 0 0-.32 1.49c-.47 4.22-.48 7.23 1 9.2A7.48 7.48 0 0 0 37.23 73a5.65 5.65 0 0 1 2.62 3.39 17 17 0 0 1 .34 2.77c.22 3.16.51 7.09 4.07 9.17 3.11 1.82 5 1.34 5.79.89a2.63 2.63 0 0 0 1.42-2.13c0-.49.12-1.26.22-2.14.31-2.55.88-7.3-.1-8.28a14.08 14.08 0 0 0-3.26-2.52l-.21-.15a11.67 11.67 0 0 1-2.29-2.51c-.92-1.19-2.07-2.66-2.78-2.86l-.35-.1c-1.64-.45-4.68-1.28-6.11-2.71-1.04-1-1.59-3.52-1.82-5.13z"/>
            <path fill="#000" d="M76.49 98.46c-1.81 0-3.58-1.24-4.83-2.11-.45-.31-.84-.58-1.09-.71a5.72 5.72 0 0 0-2.44-.06 38.37 38.37 0 0 1-6 .1c-5.37-.33-9.11-6.55-10-9.33s3.26-12.13 3.73-13.2l.73.32c-1.24 2.84-4.33 10.63-3.7 12.64.83 2.62 4.3 8.47 9.27 8.77a35.69 35.69 0 0 0 5.87-.1 5.8 5.8 0 0 1 2.84.14 9.5 9.5 0 0 1 1.22.77c1.4 1 3.52 2.47 5.35 1.8a7.06 7.06 0 0 0 3-2.29 7.13 7.13 0 0 1 2.05-1.81 17.26 17.26 0 0 1 2.41-.84c1.77-.54 4.44-1.35 4.65-2.24.05-.23-.1-.49-.43-.79a4.16 4.16 0 0 0-3.63-1.22 4.63 4.63 0 0 1-2.59-.39 24.69 24.69 0 0 1-6.84-6.1c-.52-.85-1-1.59-1.5-2.25-.92-1.33-1.32-1.94-1.32-2.39h.8a9.24 9.24 0 0 0 1.18 1.93c.46.67 1 1.42 1.52 2.28a23.72 23.72 0 0 0 6.53 5.81 3.77 3.77 0 0 0 2.18.31 5 5 0 0 1 4.21 1.42 1.62 1.62 0 0 1 .66 1.56c-.3 1.35-2.9 2.14-5.19 2.83a17.6 17.6 0 0 0-2.27.79 6.68 6.68 0 0 0-1.82 1.63 7.84 7.84 0 0 1-3.32 2.52 3.61 3.61 0 0 1-1.23.21z"/>
            <path fill="#000" d="M78.91 91.6a6.33 6.33 0 0 1-3.08-1.15 11.08 11.08 0 0 0-4.71-1.72c-2.53-.25-6.1.9-9 1.81a17.46 17.46 0 0 1-4 1 8.29 8.29 0 0 1-3.92-1.17l.43-.68a7.56 7.56 0 0 0 3.49 1.05 17.83 17.83 0 0 0 3.72-1c2.93-.94 6.58-2.11 9.28-1.85a11.89 11.89 0 0 1 5 1.83c1.14.66 2 1.18 3.09 1a11.15 11.15 0 0 0 3.84-2 5.63 5.63 0 0 1 2.45-1.27v.8a6.24 6.24 0 0 0-2 1.12 11.32 11.32 0 0 1-4.17 2.13 2.59 2.59 0 0 1-.42.1z"/>
            <path fill="#000" d="M30.45 73.77A19.85 19.85 0 0 1 18.38 70c-4.74-3.66-7-9.52-6.69-17.4.31-7.6 2.77-13.12 7.37-16.55a19.06 19.06 0 0 1 11.05-3.53c5.61 0 11.53 8.91 11.77 9.29l-.66.44c-.06-.09-5.93-8.93-11.11-8.93a18.26 18.26 0 0 0-10.58 3.37c-4.39 3.28-6.76 8.63-7 15.91-.29 7.61 1.85 13.24 6.37 16.74 5.13 4 12.44 4.27 17.06 2.88l.23.77a20.24 20.24 0 0 1-5.74.78z"/>
            <path fill="#000" d="M20.26 71.22c-1.19-1-2-3.88-2.19-6-.07-1.07-.38-4.7-1.44-6.65a4.48 4.48 0 0 1-.73-3.47v-.72a25.94 25.94 0 0 0-.52-5.24c-.19-1.2-.38-2.43-.54-3.77A10.1 10.1 0 0 1 16 39l.67.43a9.54 9.54 0 0 0-1 5.77c.15 1.33.34 2.56.53 3.75a26.52 26.52 0 0 1 .53 5.41v.73a3.84 3.84 0 0 0 .64 3c1.11 2 1.45 5.56 1.54 7 .15 2.2 1 4.71 1.91 5.48z"/>
            <path fill="#000" d="M56.05 114.1a8.31 8.31 0 0 1-3.47-1.4 14.71 14.71 0 0 0-1.82-1 3 3 0 0 0-2.12 0 7 7 0 0 1-3.5.07c-2.24-.48-2.79-1.66-3.49-3.17a13 13 0 0 0-1.5-2.6c-1.23-1.62-3.36-2.11-5.82-2.67a26.83 26.83 0 0 1-4.93-1.49c-4.15-1.85-4.82-7.19-5.19-10.07l-.06-.52c-.09-.68-.29-1.52-.51-2.48a24.91 24.91 0 0 1-.9-9c.63-4.7 8.8-6.73 9.14-6.81l.19.77c-.08 0-8 2-8.54 6.14a24.36 24.36 0 0 0 .88 8.74c.23 1 .43 1.84.53 2.57l.07.52c.34 2.72 1 7.78 4.71 9.44a26.12 26.12 0 0 0 4.79 1.44c2.5.57 4.87 1.12 6.28 3a13.55 13.55 0 0 1 1.58 2.76c.68 1.45 1.09 2.32 2.93 2.72a6.23 6.23 0 0 0 3.16-.07 3.79 3.79 0 0 1 2.6.09A16.11 16.11 0 0 1 53 112c1.84 1.06 3.2 1.75 3.76 1s0-2.56-.53-4.38-1.08-3.93-.81-5.43a27.67 27.67 0 0 1 .85-3.2 9 9 0 0 0 .68-3.77c-.25-2-2.58-5.62-2.6-5.66l.67-.43c.1.16 2.45 3.85 2.73 6a9.58 9.58 0 0 1-.72 4.12 23.85 23.85 0 0 0-.82 3.09c-.24 1.33.28 3.24.79 5.08.6 2.18 1.11 4.06.41 5a1.53 1.53 0 0 1-1.36.68z"/>
            <path fill="#000" d="M74.92 116.4c-4.72 0-9.66-4.35-12.4-6.77-3-2.66-5.65-13.77-5.76-14.24l.78-.18c0 .11 2.68 11.32 5.51 13.82 2.64 2.33 8.14 7.19 12.8 6.51a6.65 6.65 0 0 0 3.57-1.27c.65-.48 1.09-.74 2.64-.47 2.23.4 9.67 1.33 12-3.18a10.48 10.48 0 0 0 1.44-4.37 3.08 3.08 0 0 1 .88-2.14c.24-.27.49-.53.75-.79 1.28-1.3 2.39-2.42 1.32-4.5-1.3-2.53-10-5.56-14-5.31v-.8c4-.25 13.18 2.71 14.74 5.74 1.33 2.6-.15 4.1-1.46 5.43-.25.25-.49.5-.73.76a2.38 2.38 0 0 0-.68 1.69 11.28 11.28 0 0 1-1.54 4.67c-2.59 5-10.49 4-12.85 3.6-1.29-.23-1.54 0-2 .32a9.4 9.4 0 0 1-5 1.49z"/>
            <path fill="#000" d="M63.46 73.1c-1.55-1.63-3.84-.42-3.36.78s.47 2.32 2.16 1.71 1.68-1.99 1.2-2.49z"/>
            <path fill="#000" d="M57 65c-.65-.87-1.63-.56-1.78.54s-.51 2.7.65 2.34 1.92-.31 1.52-1.6"/>
            <path fill="#000" d="M58 69.67c-.8-.72-1.7-.23-1.63.88s0 2.75 1.1 2.17 1.82-.69 1.18-1.87"/>
            <path fill="#000" d="M69.41 71.88c.34 1 1.36 1 1.85 0s1.34-2.4.12-2.43-1.92-.31-1.95 1"/>
            <path fill="#000" d="M63.24 64.85c-1 .42-1 1.44.09 1.86s2.48 1.16 2.42 0 .18-1.94-1.17-1.87"/>
            <path fill="#000" d="M64.14 62.84c.34 1 1.36 1 1.86 0s1.33-2.4.11-2.43-1.91-.31-1.94 1"/>
            <path fill="#000" d="M61.72 70.92c.35 1 1.37 1 1.86 0s1.33-2.4.12-2.43-1.92-.31-2 1"/>
            <path fill="#000" d="M58.47 63.59c-.28 1.64.66 1.65 1.49 1.65s1.32.25 1.28-.83-.57-1.9-1.38-1.9a1.42 1.42 0 0 0-1.39 1.08z"/>
            <path fill="#000" d="M76.07 65.33c-.23 1.35.53 1.35 1.21 1.35s1.07.21 1-.67-.46-1.55-1.12-1.55a1.16 1.16 0 0 0-1.09.87z"/>
            <path fill="#000" d="M71 59.39c-.22 1.26.5 1.27 1.13 1.27s1 .19 1-.64-.44-1.46-1.06-1.46a1.09 1.09 0 0 0-1.07.83z"/>
            <path fill="#000" d="M69.2 57.42c-1.62-.32-1.65.61-1.67 1.43s-.27 1.3.79 1.28 1.9-.52 1.92-1.32a1.41 1.41 0 0 0-1.04-1.39z"/>
            <path fill="#000" d="M56 61.77c-.23 1.34.54 1.35 1.21 1.35s1.07.2 1-.68-.46-1.55-1.12-1.55a1.17 1.17 0 0 0-1.09.88z"/>
            <path fill="#000" d="M66.4 70.72c-2 .28-1.62 1.34-1.32 2.27s.21 1.57 1.4 1.13 1.93-1.34 1.63-2.25a1.65 1.65 0 0 0-1.71-1.15z"/>
            <path fill="#000" d="M67.14 67.61c-1.08.82-.53 1.35 0 1.81s.65.88 1.23.22.72-1.45.23-1.9a1.16 1.16 0 0 0-1.46-.13z"/>
            <path fill="#000" d="M60.15 58.92c-.86.5-1.8 1.77-.79 2.32s2.76 1.42 3.17 0 .86-2.11-.28-2.32-1.65-.26-2.1 0z"/>
            <path fill="#000" d="M67.68 63.43c-.2 1 .11 2.52 1.2 2.14s2.9-1.1 2.12-2.35-1-2.06-1.91-1.35-1.3 1.05-1.41 1.56z"/>
            <path fill="#000" d="M74.1 66c-.29-1-1.3-2.16-2.08-1.31s-2 2.36-.73 3.08 1.85 1.33 2.32.27.64-1.5.49-2.04z"/>
            <path fill="#000" d="M63.78 57.06c-.91.67-.06 1.57.61 1.86s1.94.66 2.25-.37.25-2.59-1.37-2-1.17.28-1.49.51z"/>
            <path fill="#000" d="M67.62 75c-.86.63-.06 1.48.57 1.76s1.83.62 2.12-.35.23-2.41-1.31-1.9-1.08.29-1.38.49z"/>
            <path fill="#000" d="M75 70.77c-.28 1.1.94 1.26 1.65 1.06s1.92-.72 1.51-1.72-1.45-2.15-2.35-.7-.69.98-.81 1.36z"/>
            <path fill="#000" d="M73.38 63.13c-.28 1.1.94 1.26 1.65 1.06s1.92-.72 1.51-1.71-1.45-2.16-2.35-.7-.71.97-.81 1.35z"/>
            <path fill="#000" d="M61.41 67.55c.43-1-.76-1.38-1.49-1.28s-2 .45-1.72 1.49 1.14 2.34 2.23 1 .83-.85.98-1.21z"/>
            <path fill="#000" d="M71.85 74.09c.08 1.13 1.29.9 1.9.48s1.59-1.29.88-2.1-2.06-1.59-2.45.08-.36 1.15-.33 1.54z"/>
            <path fill="none" d="M136.74 0v136.74H0V0h136.74z"/>
        </g>
    </g>
</svg>