<svg preserveAspectRatio="xMidYMid meet" data-bbox="0 0 514.84 65.47" viewBox="0 0 514.84 65.47" xmlns="http://www.w3.org/2000/svg" data-type="ugc" role="presentation" aria-hidden="true">
    <g>
        <g>
            <path fill="none" d="M514.84 0v65.47H0V0h514.84z"/>
            <path fill="#000" d="M41.69 42.19h-2.15L39.47 40l-.2-5.72-.52-15.52-9.27 23.61h-.56c-3.14-7.5-6.25-15-9.4-22.57L19 33.49v.29l-.2 5.51a2.17 2.17 0 0 0 0 .26l-.08 2.62H18l.08-2.35v-.11l.21-6.24.51-14.38a1.77 1.77 0 0 0-1.52-1.74H17v-.4h3.6l9.26 22.64 8.74-22.65h2l.09 2.13a1.83 1.83 0 0 0 0 .33l.63 14.76.06 1.4.18 4.34v.1z"/>
            <path fill="#000" d="M61.94 41.65v.52H49.9V22a1.65 1.65 0 0 0-1.4-1.8h-.25v-.35h13.43v.51h-9.81V30h7.79v.54h-7.8v11.11z"/>
            <path fill="#000" d="M87.41 33.92v8.28L86.05 41a19.88 19.88 0 0 1-7.15 1.41c-6.27 0-10.79-4.78-10.79-11.35s4.52-11.33 10.79-11.33a18 18 0 0 1 8.36 2.09v3.33h-.4c-.12-.26-.25-.64-.37-.9a6.43 6.43 0 0 0-4.1-3.62 20.16 20.16 0 0 0-3.57-.35c-5 0-8.63 4.52-8.63 10.8s3.61 10.8 8.63 10.8a19.77 19.77 0 0 0 6.78-1.28v-6.68z"/>
            <path fill="#000" d="M110 41.84v.36h-3.44l-2.92-8h-8.38l-1.86 5.63-.79 2.37H92l.61-1.81.08-.15 2-6 5-14.87h.49l7.68 20.83c.56 1.13 1.2 1.64 2.14 1.64zm-6.54-8.14L99.3 22l-3.88 11.7z"/>
            <path fill="#000" d="M132 19.83v22.72h-.61c-4.8-7-9.63-13.94-14.47-20.93V42.2h-.66v-1.91a1.23 1.23 0 0 0 0-.27V22a1.65 1.65 0 0 0-1.41-1.8h-.24l-.06-.38H118l13.37 19.39V19.83z"/>
            <path fill="#000" d="M172.62 32.83v9.36l-1.54-1.34a22.53 22.53 0 0 1-8.08 1.59c-7.09 0-12.21-5.4-12.21-12.82s5.12-12.83 12.21-12.83a20.34 20.34 0 0 1 9.44 2.36v3.77L172 23c-.13-.29-.27-.73-.41-1a7.27 7.27 0 0 0-4.63-4.09 22.84 22.84 0 0 0-4-.4c-5.68 0-9.76 5.11-9.76 12.21s4.08 12.22 9.76 12.22a22.43 22.43 0 0 0 7.67-1.45v-7.66z"/>
            <path fill="#000" d="M195.58 41.84v.36h-3.45l-2.91-8h-8.35L179 39.83l-.79 2.37h-.63l.62-1.81s.05-.09.07-.15l2-6 5-14.87h.49l7.68 20.83c.56 1.13 1.22 1.64 2.14 1.64zM189 33.7 184.91 22 181 33.7z"/>
            <path fill="#000" d="M216.76 23.87h-.25l-.67-1.35a3.69 3.69 0 0 0-3.12-2.11H208v21.82h-2V20.41h-4.78a3.67 3.67 0 0 0-3.08 2.11l-.68 1.35h-.24c.09-1.09.21-2.66.3-3.75v-.26h18.81v.23c.15.03.4 3.52.43 3.78z"/>
            <path fill="#000" d="M241 19.86V42.2h-2V30.72h-14.07V42.2h-2V19.86h2v10.32H239V19.86z"/>
            <path fill="#000" d="M262.13 41.65c0 .1 0 .2-.05.29v.23h-11.99V22a1.65 1.65 0 0 0-1.4-1.8h-.25v-.35h13.43v.51h-9.82V30h7.8v.54h-7.8v11.11z"/>
            <path fill="#000" d="M287 41.69v.41h-.73c-2 0-2.32-.25-5.05-3.55s-4.92-6-5.78-7.09h-3.51v10.71h-2V22a1.65 1.65 0 0 0-1.41-1.8h-.24v-.29l8.56-.1c3.85 0 6.67 2.41 6.67 5.74 0 2.81-2.17 5-5.41 5.65h-.87a5.06 5.06 0 0 1-.62.08 3.45 3.45 0 0 1 2.11 1.27c1.15 1.45 2.94 3.66 5.06 6.27s2.22 2.87 3.22 2.87zm-10.7-10.76c3.21 0 5.13-2.26 5.13-5.37s-1.93-5.25-4.59-5.25h-4.92v10.61z"/>
            <path fill="#000" d="M299.35 30.28c3.58 1 6.15 3.65 6.15 6.21 0 3.43-2.69 5.9-6.36 5.9a16.65 16.65 0 0 1-7.62-1.7v-3.56h.28c.12.26.24.64.37.9a6.39 6.39 0 0 0 3.83 3.49 17.3 17.3 0 0 0 3.12.32c2.9 0 5-1.92 5-4.55 0-2.11-2.66-4.42-6.3-5.48-3.48-1-6-3.49-6-5.86a6.11 6.11 0 0 1 6.36-6.25 13.19 13.19 0 0 1 6.18 1.7V25h-.22l-.91-2.12a4.27 4.27 0 0 0-2.11-2.08 10.12 10.12 0 0 0-3-.55 4.8 4.8 0 0 0-5 4.94c0 1.92 2.6 4 6.18 5.1z"/>
            <path fill="#000" d="m356 16.94-5.65 19.83-.85 3-.87 3h-.56l-5.95-18.34-.31-.95-1-3.07-4.38 15.81-1 3.5-.84 3.05H334l-7.46-23.06-.18-.56a2.61 2.61 0 0 0-2.08-1.81v-.4h3.82l.11.39.55 1.79 3.81 12.48 2.43 7.73.17-.62 1-3.52 5.2-18.65h.56l1 3.11.3.94 5.93 18.56.09-.34.24-.85.8-2.83 5.13-18.19z"/>
            <path fill="#000" d="M376.27 41.65v.52h-12.04V22a1.65 1.65 0 0 0-1.41-1.8h-.24v-.35H376v.51h-9.82V30H374v.54h-7.8v11.11z"/>
            <path fill="#000" d="M386.05 41.72h10v.48h-12V22a1.65 1.65 0 0 0-1.41-1.8h-.24v-.35h3.61zm10 0z"/>
            <path fill="#000" d="M405.84 41.72h10v.48h-12V22a1.65 1.65 0 0 0-1.41-1.8h-.24v-.35h3.61zm10 0z"/>
            <path fill="#000" d="M439.45 19.83v22.72h-.61c-4.8-7-9.63-13.94-14.47-20.93V42.2h-.66v-1.91a1.23 1.23 0 0 0 0-.27V22a1.65 1.65 0 0 0-1.4-1.8h-.25l-.06-.38h3.42l13.37 19.39V19.83z"/>
            <path fill="#000" d="M459.32 41.65c0 .1 0 .2-.05.29v.23h-11.99V22a1.65 1.65 0 0 0-1.4-1.8h-.25v-.35h13.43v.51h-9.82V30H457v.54h-7.8v11.11z"/>
            <path fill="#000" d="M474 30.28c3.58 1 6.15 3.65 6.14 6.21 0 3.43-2.69 5.9-6.36 5.9a16.63 16.63 0 0 1-7.61-1.7v-3.56h.27c.13.26.25.64.37.9a6.44 6.44 0 0 0 3.85 3.49 17.39 17.39 0 0 0 3.12.32c2.91 0 5-1.92 5-4.55 0-2.11-2.66-4.42-6.3-5.48-3.49-1-6-3.49-6-5.86a6.12 6.12 0 0 1 6.37-6.25 13.18 13.18 0 0 1 6.15 1.7V25h-.21l-.92-2.12a4.23 4.23 0 0 0-2.11-2.08 10.12 10.12 0 0 0-3-.55 4.8 4.8 0 0 0-5 4.94c0 1.92 2.6 4 6.18 5.1z"/>
            <path fill="#000" d="M500.28 36.49c0 3.43-2.69 5.9-6.36 5.9a16.63 16.63 0 0 1-7.61-1.7v-3.56h.27c.12.26.25.64.37.9a6.39 6.39 0 0 0 3.85 3.49 17.3 17.3 0 0 0 3.12.32c2.91 0 5-1.92 5-4.55 0-2.11-2.66-4.42-6.3-5.48s-6-3.49-6-5.86A6.11 6.11 0 0 1 493 19.7a13.19 13.19 0 0 1 6.18 1.7V25h-.21l-.97-2.13a4.23 4.23 0 0 0-2.11-2.08 10.12 10.12 0 0 0-3-.55 4.8 4.8 0 0 0-5 4.94c0 1.92 2.6 4 6.18 5.1s6.21 3.65 6.21 6.21z"/>
        </g>
    </g>
</svg>